# xmcd
#
# Track frame offsets:
#	150
#	32466
#	64609
#	83502
#	122570
#	140120
#	162989
#	185744
#
# Disc length: 2878 seconds
#
# Revision: 1
# Processed by: cddbd v1.5.2PL0 Copyright (c) Steve Scherf et al.
# Submitted via: audiograbber 1.83.01
#
DISCID=650b3c08
DTITLE=The Human League - Bonus Tracks
DYEAR=1900
DGENRE=Rock
TTITLE0=Don't You Want Me (Fred's Love and Dancing Vocal Mix) 
TTITLE1=Love Action (I Believe In Love) (Fred's Love and Dancing Vocal Mix) 
TTITLE2=Sound Of The Crowd (Instrumental) 
TTITLE3=Open Your Heart - Non-Stop (Instrumentals) 
TTITLE4=You Remind Me Of Gold (Instrumental) 
TTITLE5=The Lebanon (Instrumental) 
TTITLE6=Human (Instrumental Version) 
TTITLE7=I Need Your Loving (Dub Version) 
EXTD=
EXTT0=
EXTT1=
EXTT2=
EXTT3=
EXTT4=
EXTT5=
EXTT6=
EXTT7=
PLAYORDER=
